<svg width="540" height="603" viewBox="0 0 540 603" fill="none" xmlns="http://www.w3.org/2000/svg">
<path d="M284.701 12.4071C344.91 12.4071 405.043 33.1579 449.681 69.3556C492.845 104.359 518.08 150.715 521.647 200.995H410.301C402.965 171.218 389.223 147.598 369.339 130.693C347.253 111.896 318.776 102.374 284.701 102.374C243.211 102.374 204.871 118.472 176.735 147.706C160.558 164.518 147.964 185.439 139.325 209.881C129.942 236.417 125.18 267.233 125.18 301.508C125.18 335.782 129.911 366.474 139.232 393.088C147.747 417.406 160.093 438.311 175.929 455.185C203.025 484.063 240.606 500.626 279.055 500.626C324.593 500.626 361.491 482.76 385.733 448.982C406.33 420.29 412.27 388.575 413.821 368.878H526.548C521.508 452.099 465.517 590.593 279.055 590.593C241.692 590.593 206.251 583.738 173.742 570.23C141.667 556.908 113.315 537.475 89.4761 512.49C65.1874 487.025 46.2498 456.472 33.1903 421.655C19.5105 385.194 12.5775 344.762 12.5775 301.492C12.5775 258.223 19.5105 217.698 33.1748 181.345C46.2808 146.481 65.3426 115.929 89.8329 90.5562C113.998 65.5404 142.877 46.1078 175.681 32.8012C209.074 19.262 245.755 12.4071 284.701 12.4071ZM284.701 0C120.605 0 0.153931 118.007 0.153931 301.492C0.153931 484.978 121.411 602.985 279.04 602.985C480.313 602.985 539.329 446.981 539.329 356.456H401.91C401.91 408.193 372.813 488.203 279.04 488.203C216.798 488.203 137.573 439.707 137.573 301.492C137.573 163.277 216.798 114.781 284.701 114.781C346.942 114.781 388.168 149.536 400.297 213.402H534.489C534.489 88.1059 412.426 0.0155089 284.701 0.0155089V0Z" fill="#2E3192"/>
</svg>
