<svg width="490" height="603" viewBox="0 0 490 603" fill="none" xmlns="http://www.w3.org/2000/svg">
<path d="M248.16 12.4071C311.782 12.4071 362.05 27.6988 397.553 57.848C431.52 86.6945 451.264 128.817 456.336 183.191H346.183C343.857 168.535 339.561 149.536 326.749 132.895C308.68 109.415 278.699 97.5042 237.66 97.5042C224.197 97.5042 198.373 99.2567 176.83 111.043C154.557 123.233 142.785 142.682 142.785 167.294C142.785 204.81 168.888 217.357 197.086 225.313H197.132L197.179 225.344L353.97 268.179C435.893 290.776 477.429 338.698 477.429 410.613C477.429 462.335 460.011 505.759 427.053 536.188C387.952 572.292 328.021 590.593 248.936 590.593C176.023 590.593 119.117 574.495 79.7989 542.733C59.4498 526.293 43.49 505.294 32.3383 480.309C22.0242 457.17 15.5875 430.076 13.1369 399.601H126.003C127.647 415.793 131.602 439.413 146.011 460.117C166.95 490.22 203.212 505.48 253.79 505.48C291.588 505.48 318.87 498.858 337.188 485.241C355.52 471.609 364.827 450.843 364.827 423.547C364.827 379.626 322.794 366.49 289.029 355.928L288.874 355.882L288.719 355.835L157.768 318.661L157.675 318.63L157.582 318.599C137.822 313.294 108.586 303.958 82.8234 284.076C50.0197 258.765 33.393 223.824 33.393 180.228C33.393 131.546 52.9356 89.9824 89.927 60.0348C128.423 28.862 183.142 12.3761 248.129 12.3761M248.16 0C108.306 0 21.0161 74.365 21.0161 180.244C21.0161 291.784 121.257 321.7 154.402 330.587L285.353 367.762C324.159 379.89 352.45 391.195 352.45 423.531C352.45 468.802 324.966 493.042 253.821 493.042C142.273 493.042 139.838 415.451 137.419 387.148H0C6.46768 539.925 102.661 602.969 248.982 602.969C425.207 602.969 489.868 513.25 489.868 410.597C489.868 319.265 427.627 275.608 357.289 256.206L200.467 213.371C168.935 204.484 155.193 193.163 155.193 167.294C155.193 122.83 201.273 109.911 237.644 109.911C326.563 109.911 331.418 168.101 335.451 195.598H469.643C463.191 63.85 379.111 0 248.16 0Z" fill="#2E3192"/>
</svg>
